<?xml version="1.0" standalone="no"?>
<!DOCTYPE svg PUBLIC "-//W3C//DTD SVG 20010904//EN"
 "http://www.w3.org/TR/2001/REC-SVG-20010904/DTD/svg10.dtd">
<svg version="1.0" xmlns="http://www.w3.org/2000/svg"
 width="1080.000000pt" height="1080.000000pt" viewBox="0 0 1080.000000 1080.000000"
 preserveAspectRatio="xMidYMid meet">

<g transform="translate(0.000000,1080.000000) scale(0.100000,-0.100000)"
fill="#000000" stroke="none">
<path d="M5325 8184 c-22 -2 -109 -11 -194 -20 -330 -32 -602 -109 -926 -260
-553 -257 -1024 -712 -1342 -1297 -84 -153 -132 -265 -194 -447 -89 -260 -144
-513 -155 -708 -3 -53 -7 -112 -10 -129 l-5 -33 -206 0 -206 0 6 93 c9 142 27
190 100 259 37 36 57 62 51 67 -13 13 -88 -14 -153 -56 -153 -98 -241 -258
-241 -438 0 -142 53 -269 149 -357 66 -61 120 -86 215 -103 l71 -12 -48 -8
c-135 -21 -236 27 -328 158 -71 102 -91 161 -97 293 -3 86 -1 124 13 170 40
140 149 290 243 334 79 38 214 80 254 80 48 0 49 13 2 35 -79 37 -204 30 -424
-26 -114 -28 -210 -71 -422 -186 l-88 -48 0 -356 c0 -269 3 -359 12 -371 19
-24 229 -113 323 -136 108 -28 291 -52 388 -52 73 0 84 3 136 34 31 19 67 46
80 60 26 28 25 30 -42 41 -52 8 -110 63 -147 139 -23 47 -32 85 -41 164 -6 57
-8 106 -4 110 4 4 96 8 206 10 l199 4 0 -84 c0 -237 95 -692 202 -964 96 -247
270 -559 436 -784 151 -205 250 -310 482 -516 280 -249 716 -469 1129 -569
253 -61 332 -70 661 -70 260 0 312 3 437 23 587 94 1127 371 1584 810 426 409
697 868 833 1408 51 203 74 352 88 565 l11 189 214 0 215 0 -7 -32 c-14 -71
-48 -166 -80 -224 -34 -60 -123 -154 -147 -154 -7 0 -5 -5 6 -11 50 -30 183
27 270 116 223 224 236 533 33 743 -45 46 -125 82 -180 82 l-32 -1 35 -17 c71
-35 119 -165 120 -324 l0 -78 -225 0 -225 0 0 28 c-1 242 -60 579 -142 817
-40 118 -157 377 -219 488 -281 500 -685 898 -1204 1188 -341 190 -678 299
-1060 344 -133 15 -348 25 -410 19z m320 -264 c203 -18 310 -40 505 -104 163
-53 224 -78 387 -159 257 -129 434 -250 647 -446 414 -380 663 -773 811 -1281
120 -413 123 -924 10 -1390 -115 -473 -281 -782 -630 -1181 -234 -266 -573
-524 -882 -670 -333 -157 -620 -225 -994 -236 -461 -12 -794 57 -1184 247
-377 184 -729 496 -1017 901 -290 407 -470 872 -508 1309 -13 149 -13 480 0
595 44 386 208 836 426 1168 282 431 673 781 1109 993 173 84 265 119 454 174
269 77 579 106 866 80z m-3941 -2353 c-27 -29 -78 -94 -113 -143 l-64 -89 6
80 c6 75 9 82 39 108 36 31 170 108 176 102 3 -2 -17 -28 -44 -58z m-100 -531
c31 -50 56 -95 56 -102 0 -6 -13 -17 -30 -24 -32 -13 -67 -46 -36 -34 9 3 16
1 16 -5 0 -14 31 -2 48 18 11 14 16 12 40 -19 15 -19 44 -54 66 -77 21 -24 35
-43 32 -43 -13 0 -160 63 -193 83 -18 10 -33 23 -33 28 0 5 -6 9 -14 9 -11 0
-16 25 -21 105 -6 89 -2 166 9 154 2 -2 29 -44 60 -93z m33 -152 c-3 -3 -12
-4 -19 -1 -8 3 -5 6 6 6 11 1 17 -2 13 -5z"/>
<path d="M5190 7719 c-429 -54 -797 -197 -1104 -428 -122 -92 -358 -319 -473
-456 -80 -94 -227 -304 -286 -406 -177 -309 -308 -723 -334 -1056 l-6 -83 106
0 106 0 5 33 c3 17 8 64 11 102 26 283 146 618 339 943 214 360 472 576 741
620 52 8 98 13 101 10 3 -3 -13 -55 -36 -114 -63 -167 -100 -316 -107 -425 -8
-126 3 -159 65 -197 26 -16 93 -68 147 -116 117 -101 176 -129 275 -129 79 -1
209 30 217 50 3 9 2 48 -3 89 -6 41 -7 70 -3 66 4 -4 19 -59 33 -122 43 -183
114 -270 221 -270 67 0 146 24 185 56 16 14 30 21 30 14 0 -29 180 -78 245
-66 43 8 106 63 129 110 9 19 22 70 30 113 11 65 56 183 70 183 1 0 -5 -24
-15 -52 -24 -70 -25 -125 -1 -132 58 -18 173 -36 231 -36 100 0 143 19 261
118 58 48 128 102 157 120 60 38 63 49 63 198 0 151 -27 264 -104 427 -47 101
-47 117 0 117 45 0 153 -24 279 -62 112 -34 158 -64 271 -174 165 -161 374
-467 489 -718 89 -191 164 -475 181 -685 l7 -81 71 0 c39 0 88 3 109 7 l39 6
-7 61 c-26 241 -111 577 -189 748 -103 224 -136 286 -221 413 -265 395 -562
688 -905 891 -305 182 -561 273 -865 309 -138 16 -443 18 -555 4z m527 -224
c155 -22 295 -60 459 -125 76 -31 292 -136 354 -173 77 -45 231 -149 227 -153
-2 -2 -31 7 -65 21 -33 13 -94 29 -134 35 -111 16 -117 18 -124 43 -5 23 -12
24 -142 35 l-137 12 -24 -28 -24 -27 -676 4 c-646 3 -677 4 -697 22 -18 17
-37 19 -155 19 -74 0 -139 -4 -145 -8 -6 -4 -16 -17 -22 -29 -8 -14 -25 -23
-54 -28 -89 -13 -145 -29 -200 -57 -32 -15 -58 -26 -58 -24 0 17 317 214 458
285 171 86 471 168 697 190 122 12 325 6 462 -14z m431 -515 c20 -24 45 -41
65 -45 62 -12 68 -17 93 -67 28 -56 29 -103 4 -288 l-13 -95 -76 0 c-105 0
-166 -37 -212 -128 l-20 -38 -25 30 c-52 62 -158 66 -282 10 l-73 -32 -32 31
-31 31 17 54 c9 30 26 62 37 72 29 26 29 111 0 120 -16 5 -20 15 -20 50 0 61
-26 121 -64 148 -25 18 -44 22 -106 22 -63 0 -80 -4 -108 -23 -47 -34 -62 -70
-62 -152 0 -40 -4 -70 -10 -70 -20 0 -9 -53 25 -123 19 -39 35 -78 35 -86 -1
-20 -29 -55 -59 -70 -20 -11 -28 -9 -65 18 -85 60 -198 65 -259 11 l-33 -29
-35 46 c-19 27 -57 59 -89 77 -48 27 -65 31 -130 31 l-75 0 -1 65 c0 36 -8 89
-17 119 -22 73 -21 113 4 164 38 74 58 97 87 97 42 1 111 36 123 64 12 25 14
26 143 29 72 2 378 2 681 -1 l550 -4 33 -38z m-1618 -660 l55 -51 -69 48 c-38
27 -71 54 -74 62 -7 20 25 -1 88 -59z m1831 26 c-18 -19 -54 -48 -80 -66 -43
-30 -41 -27 22 34 68 67 119 94 58 32z m-1017 -96 c32 -36 42 -50 33 -50 -2 0
-23 20 -47 45 -24 25 -39 45 -33 45 6 0 27 -18 47 -40z m186 22 c-14 -9 -37
-30 -52 -47 -16 -16 -28 -26 -28 -22 0 17 34 59 59 72 36 20 51 18 21 -3z
m660 -63 c-51 -41 -70 -50 -146 -74 -124 -38 -106 -22 33 30 40 15 83 35 95
46 13 10 28 18 33 18 6 1 -1 -9 -15 -20z m-1498 -18 c18 -11 58 -27 88 -35 54
-16 95 -36 74 -36 -37 0 -204 70 -204 86 0 7 8 4 42 -15z"/>
<path d="M4888 6022 c-40 -11 -58 -21 -58 -32 0 -33 80 -181 143 -262 35 -46
69 -100 76 -118 6 -19 19 -93 27 -165 9 -71 18 -144 20 -162 4 -28 11 -34 69
-57 88 -35 95 -34 89 12 -14 100 -29 154 -66 237 -40 90 -62 175 -71 273 -7
92 12 41 23 -58 9 -83 16 -107 56 -185 38 -72 50 -110 65 -195 10 -57 16 -107
13 -111 -2 -4 4 -10 14 -14 27 -11 185 -18 236 -11 51 8 47 0 64 131 7 48 23
106 40 145 39 86 78 269 56 258 -115 -55 -189 -67 -222 -35 -15 16 -11 17 58
18 46 0 93 7 120 17 41 16 45 21 48 55 l3 37 -56 0 c-33 0 -87 10 -135 26
l-78 26 -59 -20 c-91 -32 -171 -43 -213 -32 -50 13 -119 88 -159 173 -18 37
-35 67 -39 66 -4 0 -33 -8 -64 -17z m342 -334 c25 -5 71 -6 103 -2 65 7 73 0
22 -22 -51 -21 -83 -17 -150 16 -33 17 -51 28 -40 24 11 -4 40 -11 65 -16z
m150 -193 c20 -24 7 -26 -25 -5 -27 18 -28 20 -9 20 12 0 27 -7 34 -15z m130
-10 c-25 -12 -47 -21 -50 -18 -10 10 43 43 69 43 23 -1 21 -3 -19 -25z"/>
<path d="M5830 5965 c-18 -38 -52 -88 -76 -112 -41 -40 -44 -47 -44 -96 0 -81
-26 -208 -59 -291 -27 -68 -39 -120 -55 -239 l-5 -38 37 7 c20 4 55 12 77 18
l40 12 7 94 c13 177 29 283 47 324 10 23 44 70 75 105 52 58 116 172 132 236
7 27 -3 31 -84 41 l-60 6 -32 -67z"/>
<path d="M3720 5620 c-71 -18 -70 -11 -70 -401 0 -196 -4 -349 -9 -349 -8 0
-22 484 -18 632 2 58 -1 71 -21 90 -20 21 -32 23 -122 23 -155 0 -144 29 -148
-390 l-3 -344 -62 -5 c-34 -3 -100 -8 -147 -12 -103 -7 -140 -24 -140 -62 0
-31 33 -90 55 -98 8 -3 71 1 140 10 68 9 131 16 139 16 13 0 16 -40 18 -274
l3 -275 34 -35 c35 -36 35 -36 122 -36 71 0 91 4 110 19 l24 19 2 314 c2 414
1 400 13 393 6 -4 10 -129 10 -341 0 -367 3 -386 58 -401 33 -10 137 -9 175 1
53 13 57 42 57 385 0 286 1 310 18 315 28 8 227 24 497 41 138 8 294 17 348
21 53 3 97 4 97 1 0 -3 -14 -26 -30 -51 -74 -109 -133 -294 -150 -470 -12
-118 -9 -126 38 -126 73 0 346 -82 381 -114 15 -13 24 -5 88 79 80 104 150
227 184 325 12 36 25 68 29 73 3 4 16 -26 29 -65 13 -40 48 -122 79 -183 31
-60 69 -136 85 -168 23 -46 32 -57 47 -52 53 17 335 84 399 96 l74 13 -7 114
c-14 237 -51 348 -153 461 l-58 64 180 -6 c238 -9 730 -42 782 -53 l22 -4 3
-326 3 -326 27 -23 c31 -27 155 -43 201 -26 53 21 57 47 57 416 0 217 4 335
10 335 6 0 10 -121 10 -344 0 -331 1 -344 21 -369 50 -64 202 -56 242 12 15
25 17 64 17 300 l0 271 23 0 c13 0 94 -9 181 -20 86 -10 163 -17 171 -14 16 7
45 64 45 91 0 45 -30 54 -212 69 -95 8 -179 16 -185 19 -10 3 -13 77 -13 322
0 190 -4 333 -11 355 -14 53 -53 72 -147 72 -66 0 -75 -2 -100 -27 l-27 -27
-3 -345 c-2 -196 -7 -345 -12 -345 -5 0 -10 146 -12 338 -3 302 -5 341 -20
365 -22 33 -86 51 -152 43 -57 -6 -93 -27 -106 -62 -6 -14 -10 -162 -10 -335
l0 -309 -22 0 c-13 0 -97 7 -188 14 -135 12 -534 37 -764 49 l-50 2 -45 118
c-40 102 -49 117 -66 113 -11 -2 -73 -18 -139 -35 -180 -47 -306 -41 -495 24
-41 14 -80 25 -87 25 -8 0 -28 -47 -48 -114 -20 -62 -42 -118 -48 -123 -7 -6
-85 -13 -173 -16 -269 -10 -682 -42 -817 -63 l-38 -6 0 321 c0 330 -3 355 -41
379 -26 16 -134 24 -179 12z"/>
<path d="M4804 4195 c8 -22 -36 -203 -71 -285 -25 -59 -27 -76 -27 -190 0 -69
5 -149 12 -178 6 -29 15 -90 18 -136 l7 -84 -31 -6 c-37 -9 -58 -31 -67 -74
-9 -43 -23 -47 -87 -27 -168 54 -376 201 -593 419 -127 127 -275 308 -324 394
-6 11 -26 4 -87 -28 -111 -60 -110 -59 -84 -111 32 -63 174 -249 266 -350 224
-243 399 -376 657 -499 l107 -52 0 -48 c0 -42 4 -51 30 -70 16 -11 63 -28 104
-37 70 -15 77 -15 122 2 26 10 56 27 67 38 19 19 20 19 151 -2 349 -57 660
-56 963 5 145 28 143 28 143 9 0 -23 77 -55 134 -55 52 0 163 25 184 42 19 16
14 72 -9 101 l-20 27 43 17 c116 46 388 203 513 297 116 87 335 305 421 419
81 107 120 175 107 186 -4 4 -40 31 -80 59 l-72 51 -67 -87 c-194 -252 -374
-410 -685 -606 -112 -69 -217 -121 -258 -127 -21 -3 -26 1 -32 31 -8 36 -49
80 -75 80 -17 0 -16 21 12 212 8 54 14 124 14 156 0 74 -32 202 -65 258 -21
35 -26 61 -32 148 l-6 106 -36 0 c-32 0 -329 -67 -340 -76 -3 -2 7 -17 21 -32
14 -15 45 -56 69 -91 24 -35 54 -78 67 -95 20 -30 21 -36 11 -91 -15 -84 -6
-124 62 -260 69 -139 93 -233 66 -262 -9 -10 -21 -48 -27 -85 -15 -94 -16 -96
-77 -114 -120 -35 -212 -46 -433 -51 -198 -5 -243 -3 -367 16 -186 28 -200 34
-213 79 -5 21 -10 54 -10 75 0 22 -8 55 -17 74 -25 53 -5 131 70 275 60 116
62 121 62 196 0 120 -11 125 -70 37 -27 -41 -51 -73 -53 -71 -1 2 19 38 45 81
26 42 62 100 79 128 16 29 49 80 72 115 l42 63 -45 19 c-49 21 -161 55 -215
65 -19 4 -44 9 -54 12 -15 4 -18 2 -12 -12z"/>
<path d="M8720 5871 c-94 -8 -110 -14 -158 -64 l-33 -34 103 -5 c136 -6 205
-35 283 -120 31 -33 62 -73 71 -90 57 -111 78 -264 50 -380 -40 -173 -173
-353 -303 -410 -47 -21 -118 -22 -210 -2 -29 6 -33 4 -33 -14 0 -24 47 -64
103 -87 86 -36 435 -10 568 43 97 38 310 153 320 172 25 50 34 148 34 390 -1
140 -4 289 -9 331 l-7 76 -87 41 c-292 139 -448 173 -692 153z m553 -202 l77
-39 0 -108 -1 -107 -35 66 c-20 37 -61 97 -92 134 -31 37 -68 80 -81 96 l-24
29 39 -16 c22 -9 74 -34 117 -55z m73 -576 c-9 -144 -19 -176 -63 -212 -32
-27 -172 -91 -197 -91 -6 0 2 12 16 28 32 34 144 214 192 310 20 40 41 72 47
72 9 0 10 -30 5 -107z"/>
</g>
</svg>
