<?xml version="1.0"?>
<svg width="1024" height="1024" xmlns="http://www.w3.org/2000/svg" xmlns:svg="http://www.w3.org/2000/svg" preserveAspectRatio="xMidYMid meet" version="1.0">
 <g class="layer">
  <title>Layer 1</title>
  <g fill="#000000" id="svg_1" transform="translate(0 1024) matrix(0.1 0 0 -0.1 0 0)">
   <path d="m4969,8186c-74,-21 -170,-77 -225,-133c-59,-61 -117,-165 -133,-241c-18,-86 -14,-221 9,-294c11,-34 20,-63 20,-63c0,0 -16,0 -37,-1c-27,0 -43,-8 -65,-32c-26,-30 -28,-39 -28,-110c0,-93 12,-142 51,-204c21,-32 42,-51 71,-62c39,-16 40,-17 32,-54c-4,-20 -8,-120 -8,-221l-1,-185l-45,-19c-57,-24 -190,-104 -298,-178c-77,-53 -89,-58 -170,-69c-190,-27 -326,-105 -424,-244c-45,-65 -88,-171 -88,-218c0,-22 22,-48 41,-48c23,0 89,-23 89,-32c0,-4 -19,-8 -42,-8c-48,0 -100,-27 -118,-60c-13,-24 -10,-74 10,-192c15,-87 3,-212 -28,-282l-17,-38l0,124c0,67 -9,187 -19,265c-19,139 -19,146 -1,245c9,57 23,157 29,223l11,119l59,33c119,67 190,148 227,255l18,53l108,11c59,6 222,22 361,35c204,18 255,26 261,38c13,25 23,179 11,161c-5,-8 -10,-42 -10,-75c0,-33 -4,-66 -8,-73c-6,-8 -50,-16 -128,-22c-153,-12 -426,-38 -530,-51l-81,-11l-13,-41c-32,-111 -109,-201 -225,-264l-70,-38l-7,-105c-4,-58 -17,-159 -29,-225c-26,-144 -26,-118 0,-290c22,-142 32,-391 17,-430c-8,-20 -8,-20 8,0c21,25 62,156 75,236c8,47 6,89 -6,180c-12,82 -14,128 -7,147c12,36 64,60 137,64c33,2 57,7 57,14c0,6 -33,21 -72,33c-40,12 -79,24 -85,26c-27,9 24,155 81,234c101,137 218,203 419,236c86,14 93,17 215,99c126,84 272,166 295,166c9,0 12,45 12,172c0,95 3,203 7,241c7,66 7,67 -17,67c-33,0 -76,39 -105,96c-20,40 -26,67 -28,145l-4,96l32,26c35,30 46,32 86,17c34,-13 39,-8 21,22c-42,66 -62,200 -47,310c22,153 128,304 261,371c183,92 426,61 571,-73c153,-139 206,-354 138,-550c-16,-47 -30,-86 -30,-86c0,-1 19,3 42,9c40,10 42,9 71,-23c28,-31 29,-37 25,-99c-8,-99 -36,-179 -80,-223c-25,-25 -47,-38 -64,-38c-23,0 -25,-3 -20,-22c4,-13 10,-120 13,-238l7,-215l95,-47c53,-26 160,-85 238,-132c120,-72 149,-86 185,-86c60,0 198,-35 265,-67c67,-31 167,-127 206,-198c25,-44 67,-170 67,-200c0,-6 -39,-21 -87,-34c-49,-14 -92,-27 -96,-31c-4,-4 17,-10 48,-14c74,-8 119,-28 141,-61c16,-25 16,-35 3,-138c-22,-183 -8,-303 51,-414l31,-58l-6,43c-13,84 -6,250 16,392c25,163 25,179 5,305c-19,112 -34,221 -42,303c-6,57 -10,65 -33,73c-124,47 -211,136 -257,267c-10,28 -23,52 -29,52c-5,0 -86,9 -180,19c-93,11 -233,25 -310,31c-77,6 -164,13 -192,16l-53,5l0,85l0,84l33,0c17,0 154,-9 302,-20c395,-29 418,-31 443,-36c18,-3 22,0 22,18c0,13 9,42 20,66c15,33 29,47 62,62c55,25 90,25 162,0c31,-12 94,-28 138,-36c137,-26 215,-79 238,-162c16,-60 13,-261 -6,-318c-9,-27 -21,-54 -26,-61c-7,-8 -1,-35 16,-80c62,-165 217,-664 250,-808c54,-234 41,-444 -41,-656c-31,-78 -78,-140 -127,-166c-41,-23 -170,-22 -256,0c-93,25 -312,135 -406,205c-95,70 -187,170 -230,251l-31,58l-27,-106c-33,-129 -106,-282 -177,-370l-52,-65l6,-429l5,-429l-76,-80c-142,-148 -392,-329 -694,-501l-46,-27l-149,87c-137,80 -186,111 -348,220c-79,53 -155,121 -238,211l-67,73l6,437l6,437l-59,77c-96,124 -160,262 -194,421l-12,58l-29,-60c-77,-162 -366,-374 -623,-458c-105,-34 -223,-38 -275,-8c-44,26 -89,107 -129,230c-41,127 -55,239 -48,386c7,164 32,274 137,604c18,55 49,156 70,225c21,69 47,149 59,179l20,55l-31,64c-28,57 -32,75 -36,174c-6,144 7,204 56,253c47,48 79,61 189,79c48,8 121,27 161,42c65,24 78,25 112,15c60,-18 94,-52 113,-115c17,-52 20,-55 45,-51c27,5 255,23 587,46c94,6 174,15 179,20c14,13 2,12 -379,-16c-365,-26 -384,-28 -401,-26c-6,1 -14,18 -18,39c-7,43 -29,72 -77,101c-45,28 -100,27 -185,-3c-38,-14 -104,-30 -147,-35c-42,-6 -92,-17 -111,-25c-53,-22 -111,-81 -124,-124c-10,-33 -17,-40 -45,-45c-331,-60 -414,-70 -389,-45c17,17 15,63 -4,99c-22,44 -93,74 -138,59c-45,-15 -90,-64 -123,-135c-36,-79 -44,-219 -19,-323c41,-166 143,-258 241,-217c55,22 96,109 81,169c-5,19 -12,23 -42,22c-20,0 -39,4 -41,10c-2,6 8,11 24,11c15,0 68,8 117,17c49,9 115,19 145,22c31,3 84,11 119,18l62,13l29,-54l29,-54l-23,-72c-94,-288 -209,-671 -232,-767c-23,-100 -26,-137 -27,-285c0,-153 3,-180 26,-267c38,-138 96,-258 143,-294c33,-24 49,-29 112,-33c48,-2 101,3 146,14c92,21 289,115 403,192c95,65 213,179 259,253l29,45l8,-40c27,-132 96,-278 184,-394l56,-73l-3,-432c-4,-492 -13,-438 93,-551c96,-103 310,-258 533,-384c61,-35 127,-74 147,-88l37,-25l113,68c305,183 485,314 626,457l93,93l-1,437l0,436l50,63c63,78 130,216 161,330c13,49 26,88 29,88c3,0 18,-23 35,-50c113,-191 465,-408 711,-439c142,-18 225,21 286,134c74,140 115,365 98,541c-17,171 -60,333 -207,778l-89,269l20,53c15,39 25,52 36,48c8,-3 81,-14 161,-25c214,-29 235,-33 230,-50c-15,-52 9,-135 53,-182c26,-28 32,-30 81,-27c50,3 80,26 123,92c55,86 75,168 69,283c-5,95 -22,153 -66,220c-54,81 -138,109 -196,63c-30,-23 -64,-90 -65,-125c0,-30 -14,-29 -205,2c-82,14 -160,25 -173,25c-13,0 -25,7 -28,18c-15,51 -49,101 -83,123c-39,25 -83,40 -241,79c-47,11 -104,26 -127,32c-81,21 -172,-27 -195,-104c-6,-22 -18,-42 -25,-45c-8,-3 -116,2 -241,11c-524,38 -543,39 -555,27c-8,-8 -8,-11 2,-11c8,0 12,-12 10,-37c-1,-21 -1,-63 0,-93l1,-56l213,-18c263,-23 511,-51 525,-60c6,-3 16,-23 22,-44c18,-56 65,-124 124,-180c52,-50 122,-92 151,-92c11,0 15,-11 15,-42c0,-46 33,-312 49,-393c8,-40 6,-75 -11,-170c-15,-82 -22,-165 -22,-263c-1,-131 -2,-140 -15,-110c-27,67 -43,171 -37,243c19,217 19,244 2,269c-11,17 -36,31 -78,44l-62,18l66,18c37,10 69,24 72,31c8,22 -22,132 -55,198c-21,40 -58,88 -108,137c-65,65 -87,80 -151,104c-78,29 -200,56 -252,56c-20,0 -69,23 -144,70c-62,38 -165,97 -227,130l-114,60l-6,198c-4,108 -9,206 -12,217c-4,16 3,24 36,39c71,32 121,143 123,274c1,80 0,85 -28,108c-15,14 -42,28 -58,31c-24,5 -29,10 -24,27c55,190 48,299 -30,447c-67,128 -181,218 -319,254c-71,18 -221,18 -286,1zm-2256,-1476c33,-37 38,-85 7,-75c-62,20 -99,-46 -100,-176c0,-104 21,-182 61,-221c35,-35 35,-37 7,-32c-21,4 -20,3 2,-6c22,-10 28,-8 53,20l27,30l0,-25c0,-39 -25,-89 -56,-114c-46,-36 -98,-24 -151,34c-63,69 -86,137 -91,275c-4,126 10,182 65,263c51,74 123,85 176,27zm4932,24c69,-32 126,-150 133,-273c7,-132 -26,-243 -99,-326c-28,-31 -37,-35 -79,-35c-40,0 -52,4 -69,26c-21,26 -35,65 -45,122c-7,40 -3,40 22,0c14,-21 17,-35 10,-39c-6,-4 -7,-9 0,-13c17,-11 59,32 83,86c19,44 23,70 24,153c0,55 -3,113 -7,129c-15,60 -74,95 -107,64c-11,-11 -13,-6 -8,24c6,41 30,72 67,87c34,13 37,13 75,-5zm-4490,-228l0,-125l-60,-10c-95,-17 -352,-51 -385,-51c-24,0 -31,5 -37,28c-10,34 -7,193 4,202c4,4 64,15 133,24c69,10 172,26 230,36c58,10 107,19 110,19c3,1 5,-55 5,-123zm4330,58c39,-3 76,-11 83,-17c14,-11 17,-194 2,-217c-8,-12 -22,-12 -107,-1c-54,7 -145,19 -203,26c-178,23 -192,26 -186,42c4,8 6,63 6,122l0,107l168,-27c92,-15 199,-31 237,-35zm64,42c-2,-2 -20,-7 -39,-11c-24,-5 -32,-4 -25,3c6,6 21,12 35,14c25,4 37,1 29,-6zm-4822,-2c-3,-3 -12,-4 -19,-1c-8,3 -5,6 6,6c11,1 17,-2 13,-5z" fill="#ffffff" id="svg_2"/>
   <path d="m2337,7571c-68,-28 -110,-62 -161,-135c-81,-113 -128,-244 -170,-476c-38,-207 -37,-519 3,-791c52,-356 170,-635 342,-809c84,-86 158,-122 259,-128c163,-10 233,68 334,371c77,229 159,691 127,711c-5,3 -47,-1 -95,-10l-86,-16l0,-37c0,-55 -37,-291 -61,-389c-61,-248 -138,-353 -245,-337c-133,20 -274,340 -326,745c-16,131 -16,493 0,615c27,194 80,352 137,405c23,21 36,25 90,25c59,0 66,-2 100,-35c96,-93 192,-291 256,-530c11,-41 23,-78 27,-82c9,-9 150,16 163,29c23,23 -65,320 -151,499c-62,132 -113,206 -193,281c-105,98 -246,136 -350,94zm234,-33c135,-62 273,-258 363,-517c47,-135 89,-289 83,-306c-4,-10 -78,-27 -131,-30c-5,0 -19,39 -32,87c-50,189 -122,353 -199,456c-61,81 -106,112 -163,112c-94,0 -152,-61 -199,-207c-138,-436 -68,-1188 140,-1500c81,-121 150,-155 233,-115c102,50 174,233 223,568c11,75 22,138 23,140c4,4 142,22 146,19c5,-5 -29,-219 -58,-360c-32,-160 -106,-389 -156,-486c-64,-122 -133,-163 -254,-148c-73,8 -135,39 -205,102c-163,144 -307,469 -355,795c-44,305 -48,486 -14,748c43,335 157,577 309,651c66,32 165,28 246,-9zm494,-1247c8,-14 -7,-20 -82,-36c-51,-11 -69,-11 -75,-2c-10,16 -6,18 64,32c82,16 86,17 93,6z" fill="#ffffff" id="svg_3"/>
   <path d="m7713,7571c-132,-45 -241,-167 -343,-384c-51,-108 -121,-319 -141,-425c-14,-75 -13,-76 69,-86c31,-4 66,-9 78,-12c20,-5 23,1 44,93c58,255 169,487 261,547c35,22 111,23 144,2c184,-121 238,-873 98,-1361c-52,-180 -134,-334 -208,-391c-47,-35 -112,-30 -157,12c-73,69 -152,346 -183,640c-4,33 -10,66 -15,73c-8,13 -174,40 -184,30c-10,-10 33,-287 70,-459c52,-232 148,-486 212,-554c132,-140 373,-55 534,189c247,378 350,1002 248,1507c-91,444 -288,662 -527,579zm179,-11c151,-48 278,-281 338,-620c35,-196 39,-470 10,-670c-46,-324 -140,-594 -273,-790c-55,-80 -151,-168 -219,-200c-113,-54 -231,-35 -294,47c-66,86 -155,347 -203,593c-32,160 -56,319 -49,325c2,3 38,-1 79,-8l74,-12l3,-35c4,-64 32,-224 58,-335c33,-138 98,-282 143,-315c49,-34 110,-38 153,-9c95,65 179,222 238,444c133,502 71,1230 -114,1344c-39,24 -102,27 -149,7c-97,-40 -224,-294 -284,-564c-12,-54 -22,-81 -30,-78c-6,3 -39,8 -73,12l-61,7l6,51c12,84 93,323 150,442c140,290 318,420 497,364zm-608,-1279c33,-6 62,-13 64,-16c14,-14 -15,-17 -80,-9c-59,7 -74,13 -76,27c-3,14 1,18 15,14c10,-3 45,-11 77,-16z" fill="#ffffff" id="svg_4"/>
   <path d="m2003,7490c-93,-24 -150,-58 -211,-124c-117,-128 -194,-367 -222,-686c-25,-287 21,-659 117,-940c64,-187 181,-366 287,-440c87,-59 239,-87 356,-64c52,11 48,30 -27,107c-187,194 -293,439 -364,847c-26,148 -37,498 -20,661c27,258 98,469 196,585c59,68 58,94 -1,30c-52,-57 -122,-189 -153,-290c-51,-167 -65,-283 -65,-566c-1,-210 3,-289 17,-380c27,-169 53,-282 94,-405c71,-216 143,-342 272,-478c83,-87 83,-91 -3,-101c-117,-15 -262,30 -336,104c-190,190 -306,505 -350,949c-26,265 3,571 76,796c77,236 192,353 382,389c40,8 76,17 79,20c12,12 -53,5 -124,-14z" fill="#ffffff" id="svg_5"/>
   <path d="m8090,7502c0,-5 21,-35 48,-68c82,-102 146,-274 178,-474c21,-133 30,-489 15,-631c-16,-152 -55,-347 -92,-461c-66,-205 -204,-428 -342,-552l-71,-64l45,-12c118,-32 289,-5 384,60c125,86 251,293 326,540c133,429 129,978 -9,1317c-80,196 -181,294 -348,337c-67,17 -134,21 -134,8zm199,-48c161,-73 252,-205 316,-459c98,-386 58,-951 -93,-1297c-131,-302 -268,-433 -473,-455c-66,-7 -206,15 -173,27c31,12 139,127 206,220c104,147 179,325 232,550c42,183 51,279 50,545c-1,273 -14,404 -60,563c-29,105 -102,255 -144,299c-16,18 -30,35 -30,39c0,14 117,-8 169,-32z" fill="#ffffff" id="svg_6"/>
   <path d="m1530,7050c-70,-13 -133,-63 -178,-142c-51,-91 -91,-294 -92,-465l0,-91l-39,-7c-113,-19 -138,-201 -41,-297c31,-32 44,-38 79,-38c25,0 43,-5 45,-12c2,-7 14,-58 26,-113c59,-262 159,-429 296,-496c46,-22 187,-38 197,-23c3,5 -14,33 -38,62c-55,66 -144,246 -183,372c-68,213 -109,530 -98,740c13,218 43,403 80,491c9,21 -9,27 -54,19zm40,-12c0,-2 -9,-26 -19,-54c-49,-128 -74,-408 -60,-659c15,-257 76,-521 163,-710c41,-89 120,-213 141,-221c8,-4 15,-9 15,-13c0,-13 -136,6 -180,26c-89,40 -177,155 -230,302c-32,87 -80,268 -80,300c0,17 -6,20 -52,19c-47,-1 -54,1 -80,33c-86,102 -53,269 52,269l37,0l6,158c14,349 107,537 275,551c6,1 12,0 12,-1z" fill="#ffffff" id="svg_7"/>
   <path d="m8664,7028c3,-13 16,-64 30,-113c89,-331 43,-869 -106,-1247c-17,-44 -60,-128 -94,-186c-34,-58 -60,-110 -57,-115c9,-14 125,-1 169,20c64,29 120,79 169,152c60,92 98,186 137,342l32,129l30,0c80,0 143,97 134,208c-6,66 -32,102 -86,122l-42,14l0,107c0,106 -18,242 -45,332c-42,143 -156,257 -259,257c-14,0 -17,-5 -12,-22zm108,-27c124,-79 185,-257 189,-553l1,-118l29,0c17,0 40,-7 54,-16c62,-40 59,-185 -5,-257c-25,-28 -34,-32 -74,-30c-41,1 -46,-1 -46,-20c0,-52 -72,-293 -112,-375c-56,-117 -149,-213 -228,-236c-29,-9 -71,-16 -92,-16l-39,0l29,43c239,347 346,1027 236,1495c-13,57 -24,106 -24,108c0,13 42,0 82,-25z" fill="#ffffff" id="svg_8"/>
   <path d="m4811,6721c-17,-11 22,-81 76,-133c95,-92 260,-121 374,-65c30,14 73,45 96,69c42,43 82,118 63,118c-5,0 -10,-4 -10,-9c0,-11 -70,-60 -133,-94c-36,-19 -57,-22 -152,-22c-100,0 -115,2 -160,27c-27,14 -70,47 -95,72c-31,31 -50,42 -59,37zm156,-128c107,-50 247,-41 356,23c31,18 57,29 57,25c0,-16 -83,-83 -129,-104c-63,-29 -188,-30 -251,-2c-61,26 -108,63 -142,109c-40,55 -35,59 15,13c23,-22 65,-51 94,-64z" fill="#ffffff" id="svg_9"/>
   <path d="m6595,6706c-54,-24 -105,-101 -105,-158c1,-32 36,-108 51,-108c9,0 9,3 0,14c-7,8 -15,39 -18,68c-7,74 20,128 80,157c24,12 48,21 55,21c6,0 14,5 17,10c9,14 -44,12 -80,-4z" fill="#ffffff" id="svg_10"/>
   <path d="m3593,6703c4,-6 20,-13 36,-16c39,-8 99,-71 107,-113c6,-31 1,-82 -13,-122c-3,-9 4,-3 16,13c59,84 -6,228 -109,242c-28,4 -41,2 -37,-4z" fill="#ffffff" id="svg_11"/>
   <path d="m4548,6239c-49,-7 -139,-51 -161,-78c-10,-12 -9,-14 8,-7c94,38 255,43 361,11c58,-18 67,-18 59,-5c-12,19 -121,68 -171,77c-27,5 -70,6 -96,2zm152,-31c28,-12 16,-13 -99,-13c-71,0 -127,3 -123,7c29,28 159,31 222,6z" fill="#ffffff" id="svg_12"/>
   <path d="m5567,6239c-61,-15 -154,-69 -141,-82c3,-3 29,2 57,10c57,17 251,23 327,10l45,-7l-30,20c-63,42 -188,66 -258,49zm168,-26c13,-8 -8,-10 -76,-10c-52,0 -114,-6 -138,-12c-64,-18 -61,-6 6,18c62,22 171,24 208,4z" fill="#ffffff" id="svg_13"/>
   <path d="m4067,5736c-40,-280 131,-523 398,-566c66,-11 191,-5 199,9c2,3 -48,7 -113,7c-101,1 -125,5 -181,28c-115,47 -190,115 -242,221c-38,76 -66,209 -47,220c5,4 9,-1 9,-10c0,-10 18,-55 39,-101c85,-182 260,-306 472,-336c43,-6 79,-15 79,-19c0,-4 14,-2 30,4c35,13 41,32 7,23c-64,-16 -258,38 -365,100c-134,79 -232,233 -269,424l-9,45l-7,-49z" fill="#ffffff" id="svg_14"/>
   <path d="m6168,5770c-4,-8 -16,-55 -28,-105c-27,-112 -66,-183 -145,-260c-104,-104 -262,-170 -452,-190c-35,-4 -61,-10 -58,-15c11,-17 128,-32 222,-28c76,4 112,11 163,31c167,69 281,216 309,399c9,61 0,198 -11,168zm-8,-183c-41,-210 -190,-356 -405,-398c-45,-9 -212,-2 -201,8c2,2 34,8 71,14c246,35 447,186 515,389c11,33 21,67 21,77c1,11 4,8 6,-6c3,-14 0,-52 -7,-84z" fill="#ffffff" id="svg_15"/>
   <path d="m5100,5659c0,-70 -27,-228 -51,-297c-12,-35 -37,-84 -55,-108c-19,-24 -34,-46 -34,-48c0,-2 21,3 48,11c47,14 166,13 221,-3c21,-6 20,-3 -13,40c-46,61 -73,149 -92,310c-17,139 -24,167 -24,95zm29,-239c7,-36 24,-90 39,-121l27,-55l-92,0c-51,0 -93,1 -93,3c0,2 11,20 24,41c23,36 65,180 67,231c1,25 1,25 9,-4c5,-16 13,-59 19,-95z" fill="#ffffff" id="svg_16"/>
   <path d="m6280,5295c0,-17 65,-129 106,-184c41,-55 121,-127 130,-118c2,2 -27,34 -64,73c-39,41 -86,104 -112,152c-39,70 -60,97 -60,77z" fill="#ffffff" id="svg_17"/>
   <path d="m3875,5184c-38,-59 -90,-125 -116,-148c-56,-51 -72,-74 -39,-56c58,31 162,157 214,258c38,74 7,45 -59,-54z" fill="#ffffff" id="svg_18"/>
   <path d="m4940,4933c-60,-21 -95,-26 -178,-27c-112,-1 -114,-6 -27,-47c82,-38 176,-15 270,66c48,41 35,43 -65,8zm50,-7c0,-2 -21,-16 -47,-31c-58,-33 -166,-45 -196,-23c-16,12 -11,14 45,16c35,1 88,10 118,21c55,19 80,25 80,17z" fill="#ffffff" id="svg_19"/>
   <path d="m5287,4916c73,-65 152,-88 230,-67c38,10 112,66 101,76c-2,2 -26,-3 -53,-11c-63,-20 -161,-13 -235,15c-77,29 -86,26 -43,-13zm133,-25c25,-3 68,-4 95,0c28,3 52,5 53,3c2,-1 -10,-10 -27,-18c-53,-28 -153,-17 -206,22c-19,13 -18,14 10,7c17,-4 50,-10 75,-14z" fill="#ffffff" id="svg_20"/>
   <path d="m4610,4500c0,-4 25,-25 55,-45c43,-30 67,-39 111,-43c49,-4 64,0 130,33c75,38 97,62 47,51c-138,-29 -159,-30 -252,-9c-50,11 -91,17 -91,13zm147,-42c38,-8 65,-7 99,1c59,15 69,6 18,-15c-57,-24 -157,-16 -187,15c-21,22 -21,23 -2,17c11,-4 43,-12 72,-18z" fill="#ffffff" id="svg_21"/>
   <path d="m5540,4488c-78,-21 -175,-20 -237,2l-28,10l27,-22c15,-13 54,-34 86,-46c50,-20 64,-22 98,-13c45,12 134,66 134,81c0,5 -1,10 -2,9c-2,0 -37,-9 -78,-21zm2,-28c-29,-24 -81,-34 -127,-26c-59,11 -55,29 6,23c35,-4 66,-2 89,7c50,19 58,18 32,-4z" fill="#ffffff" id="svg_22"/>
   <path d="m3250,4371c0,-16 77,-150 147,-258c115,-176 376,-478 563,-651c334,-308 606,-497 1074,-747l90,-47l45,22c296,141 672,384 935,605c340,283 661,659 853,998c51,90 51,91 -69,84c-57,-3 -110,-8 -118,-11c-8,-4 -37,-38 -64,-76c-71,-102 -263,-330 -369,-439c-331,-343 -652,-578 -1109,-814l-108,-55l-127,67c-318,167 -530,308 -793,529c-143,120 -432,419 -555,576c-61,77 -127,158 -147,180l-37,41l-105,3c-74,3 -106,0 -106,-7zm125,-11l83,0l150,-187c318,-399 669,-716 1069,-966c108,-68 422,-237 441,-237c34,0 420,211 571,312c228,153 498,380 675,569c98,104 260,297 339,404c32,44 66,86 75,93c10,7 50,12 109,12l93,0l-32,-52c-177,-295 -375,-544 -624,-790c-199,-196 -357,-323 -644,-515c-168,-112 -525,-313 -556,-313c-14,0 -264,137 -424,233c-437,261 -853,630 -1174,1041c-84,108 -119,160 -208,310c-35,58 -52,96 -42,92c8,-3 53,-6 99,-6z" fill="#ffffff" id="svg_23"/>
   <path d="m4675,4145c4,-11 28,-86 55,-167c53,-162 75,-209 64,-143c-10,67 -83,278 -105,305c-17,20 -20,21 -14,5z" fill="#ffffff" id="svg_24"/>
   <path d="m5558,4107c-31,-60 -49,-104 -53,-132c-1,-11 -10,-51 -19,-88c-34,-145 -10,-108 45,68c22,72 47,147 55,168c20,54 3,45 -28,-16z" fill="#ffffff" id="svg_25"/>
  </g>
 </g>
</svg>