<?xml version="1.0" standalone="no"?>
<!DOCTYPE svg PUBLIC "-//W3C//DTD SVG 20010904//EN"
 "http://www.w3.org/TR/2001/REC-SVG-20010904/DTD/svg10.dtd">
<svg version="1.0" xmlns="http://www.w3.org/2000/svg"
 width="1024.000000pt" height="1024.000000pt" viewBox="0 0 1024.000000 1024.000000"
 preserveAspectRatio="xMidYMid meet">

<g transform="translate(0.000000,1024.000000) scale(0.100000,-0.100000)"
fill="#000000" stroke="none">
<path d="M4969 8186 c-74 -21 -170 -77 -225 -133 -59 -61 -117 -165 -133 -241
-18 -86 -14 -221 9 -294 11 -34 20 -63 20 -63 0 0 -16 0 -37 -1 -27 0 -43 -8
-65 -32 -26 -30 -28 -39 -28 -110 0 -93 12 -142 51 -204 21 -32 42 -51 71 -62
39 -16 40 -17 32 -54 -4 -20 -8 -120 -8 -221 l-1 -185 -45 -19 c-57 -24 -190
-104 -298 -178 -77 -53 -89 -58 -170 -69 -190 -27 -326 -105 -424 -244 -45
-65 -88 -171 -88 -218 0 -22 22 -48 41 -48 23 0 89 -23 89 -32 0 -4 -19 -8
-42 -8 -48 0 -100 -27 -118 -60 -13 -24 -10 -74 10 -192 15 -87 3 -212 -28
-282 l-17 -38 0 124 c0 67 -9 187 -19 265 -19 139 -19 146 -1 245 9 57 23 157
29 223 l11 119 59 33 c119 67 190 148 227 255 l18 53 108 11 c59 6 222 22 361
35 204 18 255 26 261 38 13 25 23 179 11 161 -5 -8 -10 -42 -10 -75 0 -33 -4
-66 -8 -73 -6 -8 -50 -16 -128 -22 -153 -12 -426 -38 -530 -51 l-81 -11 -13
-41 c-32 -111 -109 -201 -225 -264 l-70 -38 -7 -105 c-4 -58 -17 -159 -29
-225 -26 -144 -26 -118 0 -290 22 -142 32 -391 17 -430 -8 -20 -8 -20 8 0 21
25 62 156 75 236 8 47 6 89 -6 180 -12 82 -14 128 -7 147 12 36 64 60 137 64
33 2 57 7 57 14 0 6 -33 21 -72 33 -40 12 -79 24 -85 26 -27 9 24 155 81 234
101 137 218 203 419 236 86 14 93 17 215 99 126 84 272 166 295 166 9 0 12 45
12 172 0 95 3 203 7 241 7 66 7 67 -17 67 -33 0 -76 39 -105 96 -20 40 -26 67
-28 145 l-4 96 32 26 c35 30 46 32 86 17 34 -13 39 -8 21 22 -42 66 -62 200
-47 310 22 153 128 304 261 371 183 92 426 61 571 -73 153 -139 206 -354 138
-550 -16 -47 -30 -86 -30 -86 0 -1 19 3 42 9 40 10 42 9 71 -23 28 -31 29 -37
25 -99 -8 -99 -36 -179 -80 -223 -25 -25 -47 -38 -64 -38 -23 0 -25 -3 -20
-22 4 -13 10 -120 13 -238 l7 -215 95 -47 c53 -26 160 -85 238 -132 120 -72
149 -86 185 -86 60 0 198 -35 265 -67 67 -31 167 -127 206 -198 25 -44 67
-170 67 -200 0 -6 -39 -21 -87 -34 -49 -14 -92 -27 -96 -31 -4 -4 17 -10 48
-14 74 -8 119 -28 141 -61 16 -25 16 -35 3 -138 -22 -183 -8 -303 51 -414 l31
-58 -6 43 c-13 84 -6 250 16 392 25 163 25 179 5 305 -19 112 -34 221 -42 303
-6 57 -10 65 -33 73 -124 47 -211 136 -257 267 -10 28 -23 52 -29 52 -5 0 -86
9 -180 19 -93 11 -233 25 -310 31 -77 6 -164 13 -192 16 l-53 5 0 85 0 84 33
0 c17 0 154 -9 302 -20 395 -29 418 -31 443 -36 18 -3 22 0 22 18 0 13 9 42
20 66 15 33 29 47 62 62 55 25 90 25 162 0 31 -12 94 -28 138 -36 137 -26 215
-79 238 -162 16 -60 13 -261 -6 -318 -9 -27 -21 -54 -26 -61 -7 -8 -1 -35 16
-80 62 -165 217 -664 250 -808 54 -234 41 -444 -41 -656 -31 -78 -78 -140
-127 -166 -41 -23 -170 -22 -256 0 -93 25 -312 135 -406 205 -95 70 -187 170
-230 251 l-31 58 -27 -106 c-33 -129 -106 -282 -177 -370 l-52 -65 6 -429 5
-429 -76 -80 c-142 -148 -392 -329 -694 -501 l-46 -27 -149 87 c-137 80 -186
111 -348 220 -79 53 -155 121 -238 211 l-67 73 6 437 6 437 -59 77 c-96 124
-160 262 -194 421 l-12 58 -29 -60 c-77 -162 -366 -374 -623 -458 -105 -34
-223 -38 -275 -8 -44 26 -89 107 -129 230 -41 127 -55 239 -48 386 7 164 32
274 137 604 18 55 49 156 70 225 21 69 47 149 59 179 l20 55 -31 64 c-28 57
-32 75 -36 174 -6 144 7 204 56 253 47 48 79 61 189 79 48 8 121 27 161 42 65
24 78 25 112 15 60 -18 94 -52 113 -115 17 -52 20 -55 45 -51 27 5 255 23 587
46 94 6 174 15 179 20 14 13 2 12 -379 -16 -365 -26 -384 -28 -401 -26 -6 1
-14 18 -18 39 -7 43 -29 72 -77 101 -45 28 -100 27 -185 -3 -38 -14 -104 -30
-147 -35 -42 -6 -92 -17 -111 -25 -53 -22 -111 -81 -124 -124 -10 -33 -17 -40
-45 -45 -331 -60 -414 -70 -389 -45 17 17 15 63 -4 99 -22 44 -93 74 -138 59
-45 -15 -90 -64 -123 -135 -36 -79 -44 -219 -19 -323 41 -166 143 -258 241
-217 55 22 96 109 81 169 -5 19 -12 23 -42 22 -20 0 -39 4 -41 10 -2 6 8 11
24 11 15 0 68 8 117 17 49 9 115 19 145 22 31 3 84 11 119 18 l62 13 29 -54
29 -54 -23 -72 c-94 -288 -209 -671 -232 -767 -23 -100 -26 -137 -27 -285 0
-153 3 -180 26 -267 38 -138 96 -258 143 -294 33 -24 49 -29 112 -33 48 -2
101 3 146 14 92 21 289 115 403 192 95 65 213 179 259 253 l29 45 8 -40 c27
-132 96 -278 184 -394 l56 -73 -3 -432 c-4 -492 -13 -438 93 -551 96 -103 310
-258 533 -384 61 -35 127 -74 147 -88 l37 -25 113 68 c305 183 485 314 626
457 l93 93 -1 437 0 436 50 63 c63 78 130 216 161 330 13 49 26 88 29 88 3 0
18 -23 35 -50 113 -191 465 -408 711 -439 142 -18 225 21 286 134 74 140 115
365 98 541 -17 171 -60 333 -207 778 l-89 269 20 53 c15 39 25 52 36 48 8 -3
81 -14 161 -25 214 -29 235 -33 230 -50 -15 -52 9 -135 53 -182 26 -28 32 -30
81 -27 50 3 80 26 123 92 55 86 75 168 69 283 -5 95 -22 153 -66 220 -54 81
-138 109 -196 63 -30 -23 -64 -90 -65 -125 0 -30 -14 -29 -205 2 -82 14 -160
25 -173 25 -13 0 -25 7 -28 18 -15 51 -49 101 -83 123 -39 25 -83 40 -241 79
-47 11 -104 26 -127 32 -81 21 -172 -27 -195 -104 -6 -22 -18 -42 -25 -45 -8
-3 -116 2 -241 11 -524 38 -543 39 -555 27 -8 -8 -8 -11 2 -11 8 0 12 -12 10
-37 -1 -21 -1 -63 0 -93 l1 -56 213 -18 c263 -23 511 -51 525 -60 6 -3 16 -23
22 -44 18 -56 65 -124 124 -180 52 -50 122 -92 151 -92 11 0 15 -11 15 -42 0
-46 33 -312 49 -393 8 -40 6 -75 -11 -170 -15 -82 -22 -165 -22 -263 -1 -131
-2 -140 -15 -110 -27 67 -43 171 -37 243 19 217 19 244 2 269 -11 17 -36 31
-78 44 l-62 18 66 18 c37 10 69 24 72 31 8 22 -22 132 -55 198 -21 40 -58 88
-108 137 -65 65 -87 80 -151 104 -78 29 -200 56 -252 56 -20 0 -69 23 -144 70
-62 38 -165 97 -227 130 l-114 60 -6 198 c-4 108 -9 206 -12 217 -4 16 3 24
36 39 71 32 121 143 123 274 1 80 0 85 -28 108 -15 14 -42 28 -58 31 -24 5
-29 10 -24 27 55 190 48 299 -30 447 -67 128 -181 218 -319 254 -71 18 -221
18 -286 1z m-2256 -1476 c33 -37 38 -85 7 -75 -62 20 -99 -46 -100 -176 0
-104 21 -182 61 -221 35 -35 35 -37 7 -32 -21 4 -20 3 2 -6 22 -10 28 -8 53
20 l27 30 0 -25 c0 -39 -25 -89 -56 -114 -46 -36 -98 -24 -151 34 -63 69 -86
137 -91 275 -4 126 10 182 65 263 51 74 123 85 176 27z m4932 24 c69 -32 126
-150 133 -273 7 -132 -26 -243 -99 -326 -28 -31 -37 -35 -79 -35 -40 0 -52 4
-69 26 -21 26 -35 65 -45 122 -7 40 -3 40 22 0 14 -21 17 -35 10 -39 -6 -4 -7
-9 0 -13 17 -11 59 32 83 86 19 44 23 70 24 153 0 55 -3 113 -7 129 -15 60
-74 95 -107 64 -11 -11 -13 -6 -8 24 6 41 30 72 67 87 34 13 37 13 75 -5z
m-4490 -228 l0 -125 -60 -10 c-95 -17 -352 -51 -385 -51 -24 0 -31 5 -37 28
-10 34 -7 193 4 202 4 4 64 15 133 24 69 10 172 26 230 36 58 10 107 19 110
19 3 1 5 -55 5 -123z m4330 58 c39 -3 76 -11 83 -17 14 -11 17 -194 2 -217 -8
-12 -22 -12 -107 -1 -54 7 -145 19 -203 26 -178 23 -192 26 -186 42 4 8 6 63
6 122 l0 107 168 -27 c92 -15 199 -31 237 -35z m64 42 c-2 -2 -20 -7 -39 -11
-24 -5 -32 -4 -25 3 6 6 21 12 35 14 25 4 37 1 29 -6z m-4822 -2 c-3 -3 -12
-4 -19 -1 -8 3 -5 6 6 6 11 1 17 -2 13 -5z"/>
<path d="M2337 7571 c-68 -28 -110 -62 -161 -135 -81 -113 -128 -244 -170
-476 -38 -207 -37 -519 3 -791 52 -356 170 -635 342 -809 84 -86 158 -122 259
-128 163 -10 233 68 334 371 77 229 159 691 127 711 -5 3 -47 -1 -95 -10 l-86
-16 0 -37 c0 -55 -37 -291 -61 -389 -61 -248 -138 -353 -245 -337 -133 20
-274 340 -326 745 -16 131 -16 493 0 615 27 194 80 352 137 405 23 21 36 25
90 25 59 0 66 -2 100 -35 96 -93 192 -291 256 -530 11 -41 23 -78 27 -82 9 -9
150 16 163 29 23 23 -65 320 -151 499 -62 132 -113 206 -193 281 -105 98 -246
136 -350 94z m234 -33 c135 -62 273 -258 363 -517 47 -135 89 -289 83 -306 -4
-10 -78 -27 -131 -30 -5 0 -19 39 -32 87 -50 189 -122 353 -199 456 -61 81
-106 112 -163 112 -94 0 -152 -61 -199 -207 -138 -436 -68 -1188 140 -1500 81
-121 150 -155 233 -115 102 50 174 233 223 568 11 75 22 138 23 140 4 4 142
22 146 19 5 -5 -29 -219 -58 -360 -32 -160 -106 -389 -156 -486 -64 -122 -133
-163 -254 -148 -73 8 -135 39 -205 102 -163 144 -307 469 -355 795 -44 305
-48 486 -14 748 43 335 157 577 309 651 66 32 165 28 246 -9z m494 -1247 c8
-14 -7 -20 -82 -36 -51 -11 -69 -11 -75 -2 -10 16 -6 18 64 32 82 16 86 17 93
6z"/>
<path d="M7713 7571 c-132 -45 -241 -167 -343 -384 -51 -108 -121 -319 -141
-425 -14 -75 -13 -76 69 -86 31 -4 66 -9 78 -12 20 -5 23 1 44 93 58 255 169
487 261 547 35 22 111 23 144 2 184 -121 238 -873 98 -1361 -52 -180 -134
-334 -208 -391 -47 -35 -112 -30 -157 12 -73 69 -152 346 -183 640 -4 33 -10
66 -15 73 -8 13 -174 40 -184 30 -10 -10 33 -287 70 -459 52 -232 148 -486
212 -554 132 -140 373 -55 534 189 247 378 350 1002 248 1507 -91 444 -288
662 -527 579z m179 -11 c151 -48 278 -281 338 -620 35 -196 39 -470 10 -670
-46 -324 -140 -594 -273 -790 -55 -80 -151 -168 -219 -200 -113 -54 -231 -35
-294 47 -66 86 -155 347 -203 593 -32 160 -56 319 -49 325 2 3 38 -1 79 -8
l74 -12 3 -35 c4 -64 32 -224 58 -335 33 -138 98 -282 143 -315 49 -34 110
-38 153 -9 95 65 179 222 238 444 133 502 71 1230 -114 1344 -39 24 -102 27
-149 7 -97 -40 -224 -294 -284 -564 -12 -54 -22 -81 -30 -78 -6 3 -39 8 -73
12 l-61 7 6 51 c12 84 93 323 150 442 140 290 318 420 497 364z m-608 -1279
c33 -6 62 -13 64 -16 14 -14 -15 -17 -80 -9 -59 7 -74 13 -76 27 -3 14 1 18
15 14 10 -3 45 -11 77 -16z"/>
<path d="M2003 7490 c-93 -24 -150 -58 -211 -124 -117 -128 -194 -367 -222
-686 -25 -287 21 -659 117 -940 64 -187 181 -366 287 -440 87 -59 239 -87 356
-64 52 11 48 30 -27 107 -187 194 -293 439 -364 847 -26 148 -37 498 -20 661
27 258 98 469 196 585 59 68 58 94 -1 30 -52 -57 -122 -189 -153 -290 -51
-167 -65 -283 -65 -566 -1 -210 3 -289 17 -380 27 -169 53 -282 94 -405 71
-216 143 -342 272 -478 83 -87 83 -91 -3 -101 -117 -15 -262 30 -336 104 -190
190 -306 505 -350 949 -26 265 3 571 76 796 77 236 192 353 382 389 40 8 76
17 79 20 12 12 -53 5 -124 -14z"/>
<path d="M8090 7502 c0 -5 21 -35 48 -68 82 -102 146 -274 178 -474 21 -133
30 -489 15 -631 -16 -152 -55 -347 -92 -461 -66 -205 -204 -428 -342 -552
l-71 -64 45 -12 c118 -32 289 -5 384 60 125 86 251 293 326 540 133 429 129
978 -9 1317 -80 196 -181 294 -348 337 -67 17 -134 21 -134 8z m199 -48 c161
-73 252 -205 316 -459 98 -386 58 -951 -93 -1297 -131 -302 -268 -433 -473
-455 -66 -7 -206 15 -173 27 31 12 139 127 206 220 104 147 179 325 232 550
42 183 51 279 50 545 -1 273 -14 404 -60 563 -29 105 -102 255 -144 299 -16
18 -30 35 -30 39 0 14 117 -8 169 -32z"/>
<path d="M1530 7050 c-70 -13 -133 -63 -178 -142 -51 -91 -91 -294 -92 -465
l0 -91 -39 -7 c-113 -19 -138 -201 -41 -297 31 -32 44 -38 79 -38 25 0 43 -5
45 -12 2 -7 14 -58 26 -113 59 -262 159 -429 296 -496 46 -22 187 -38 197 -23
3 5 -14 33 -38 62 -55 66 -144 246 -183 372 -68 213 -109 530 -98 740 13 218
43 403 80 491 9 21 -9 27 -54 19z m40 -12 c0 -2 -9 -26 -19 -54 -49 -128 -74
-408 -60 -659 15 -257 76 -521 163 -710 41 -89 120 -213 141 -221 8 -4 15 -9
15 -13 0 -13 -136 6 -180 26 -89 40 -177 155 -230 302 -32 87 -80 268 -80 300
0 17 -6 20 -52 19 -47 -1 -54 1 -80 33 -86 102 -53 269 52 269 l37 0 6 158
c14 349 107 537 275 551 6 1 12 0 12 -1z"/>
<path d="M8664 7028 c3 -13 16 -64 30 -113 89 -331 43 -869 -106 -1247 -17
-44 -60 -128 -94 -186 -34 -58 -60 -110 -57 -115 9 -14 125 -1 169 20 64 29
120 79 169 152 60 92 98 186 137 342 l32 129 30 0 c80 0 143 97 134 208 -6 66
-32 102 -86 122 l-42 14 0 107 c0 106 -18 242 -45 332 -42 143 -156 257 -259
257 -14 0 -17 -5 -12 -22z m108 -27 c124 -79 185 -257 189 -553 l1 -118 29 0
c17 0 40 -7 54 -16 62 -40 59 -185 -5 -257 -25 -28 -34 -32 -74 -30 -41 1 -46
-1 -46 -20 0 -52 -72 -293 -112 -375 -56 -117 -149 -213 -228 -236 -29 -9 -71
-16 -92 -16 l-39 0 29 43 c239 347 346 1027 236 1495 -13 57 -24 106 -24 108
0 13 42 0 82 -25z"/>
<path d="M4811 6721 c-17 -11 22 -81 76 -133 95 -92 260 -121 374 -65 30 14
73 45 96 69 42 43 82 118 63 118 -5 0 -10 -4 -10 -9 0 -11 -70 -60 -133 -94
-36 -19 -57 -22 -152 -22 -100 0 -115 2 -160 27 -27 14 -70 47 -95 72 -31 31
-50 42 -59 37z m156 -128 c107 -50 247 -41 356 23 31 18 57 29 57 25 0 -16
-83 -83 -129 -104 -63 -29 -188 -30 -251 -2 -61 26 -108 63 -142 109 -40 55
-35 59 15 13 23 -22 65 -51 94 -64z"/>
<path d="M6595 6706 c-54 -24 -105 -101 -105 -158 1 -32 36 -108 51 -108 9 0
9 3 0 14 -7 8 -15 39 -18 68 -7 74 20 128 80 157 24 12 48 21 55 21 6 0 14 5
17 10 9 14 -44 12 -80 -4z"/>
<path d="M3593 6703 c4 -6 20 -13 36 -16 39 -8 99 -71 107 -113 6 -31 1 -82
-13 -122 -3 -9 4 -3 16 13 59 84 -6 228 -109 242 -28 4 -41 2 -37 -4z"/>
<path d="M4548 6239 c-49 -7 -139 -51 -161 -78 -10 -12 -9 -14 8 -7 94 38 255
43 361 11 58 -18 67 -18 59 -5 -12 19 -121 68 -171 77 -27 5 -70 6 -96 2z
m152 -31 c28 -12 16 -13 -99 -13 -71 0 -127 3 -123 7 29 28 159 31 222 6z"/>
<path d="M5567 6239 c-61 -15 -154 -69 -141 -82 3 -3 29 2 57 10 57 17 251 23
327 10 l45 -7 -30 20 c-63 42 -188 66 -258 49z m168 -26 c13 -8 -8 -10 -76
-10 -52 0 -114 -6 -138 -12 -64 -18 -61 -6 6 18 62 22 171 24 208 4z"/>
<path d="M4067 5736 c-40 -280 131 -523 398 -566 66 -11 191 -5 199 9 2 3 -48
7 -113 7 -101 1 -125 5 -181 28 -115 47 -190 115 -242 221 -38 76 -66 209 -47
220 5 4 9 -1 9 -10 0 -10 18 -55 39 -101 85 -182 260 -306 472 -336 43 -6 79
-15 79 -19 0 -4 14 -2 30 4 35 13 41 32 7 23 -64 -16 -258 38 -365 100 -134
79 -232 233 -269 424 l-9 45 -7 -49z"/>
<path d="M6168 5770 c-4 -8 -16 -55 -28 -105 -27 -112 -66 -183 -145 -260
-104 -104 -262 -170 -452 -190 -35 -4 -61 -10 -58 -15 11 -17 128 -32 222 -28
76 4 112 11 163 31 167 69 281 216 309 399 9 61 0 198 -11 168z m-8 -183 c-41
-210 -190 -356 -405 -398 -45 -9 -212 -2 -201 8 2 2 34 8 71 14 246 35 447
186 515 389 11 33 21 67 21 77 1 11 4 8 6 -6 3 -14 0 -52 -7 -84z"/>
<path d="M5100 5659 c0 -70 -27 -228 -51 -297 -12 -35 -37 -84 -55 -108 -19
-24 -34 -46 -34 -48 0 -2 21 3 48 11 47 14 166 13 221 -3 21 -6 20 -3 -13 40
-46 61 -73 149 -92 310 -17 139 -24 167 -24 95z m29 -239 c7 -36 24 -90 39
-121 l27 -55 -92 0 c-51 0 -93 1 -93 3 0 2 11 20 24 41 23 36 65 180 67 231 1
25 1 25 9 -4 5 -16 13 -59 19 -95z"/>
<path d="M6280 5295 c0 -17 65 -129 106 -184 41 -55 121 -127 130 -118 2 2
-27 34 -64 73 -39 41 -86 104 -112 152 -39 70 -60 97 -60 77z"/>
<path d="M3875 5184 c-38 -59 -90 -125 -116 -148 -56 -51 -72 -74 -39 -56 58
31 162 157 214 258 38 74 7 45 -59 -54z"/>
<path d="M4940 4933 c-60 -21 -95 -26 -178 -27 -112 -1 -114 -6 -27 -47 82
-38 176 -15 270 66 48 41 35 43 -65 8z m50 -7 c0 -2 -21 -16 -47 -31 -58 -33
-166 -45 -196 -23 -16 12 -11 14 45 16 35 1 88 10 118 21 55 19 80 25 80 17z"/>
<path d="M5287 4916 c73 -65 152 -88 230 -67 38 10 112 66 101 76 -2 2 -26 -3
-53 -11 -63 -20 -161 -13 -235 15 -77 29 -86 26 -43 -13z m133 -25 c25 -3 68
-4 95 0 28 3 52 5 53 3 2 -1 -10 -10 -27 -18 -53 -28 -153 -17 -206 22 -19 13
-18 14 10 7 17 -4 50 -10 75 -14z"/>
<path d="M4610 4500 c0 -4 25 -25 55 -45 43 -30 67 -39 111 -43 49 -4 64 0
130 33 75 38 97 62 47 51 -138 -29 -159 -30 -252 -9 -50 11 -91 17 -91 13z
m147 -42 c38 -8 65 -7 99 1 59 15 69 6 18 -15 -57 -24 -157 -16 -187 15 -21
22 -21 23 -2 17 11 -4 43 -12 72 -18z"/>
<path d="M5540 4488 c-78 -21 -175 -20 -237 2 l-28 10 27 -22 c15 -13 54 -34
86 -46 50 -20 64 -22 98 -13 45 12 134 66 134 81 0 5 -1 10 -2 9 -2 0 -37 -9
-78 -21z m2 -28 c-29 -24 -81 -34 -127 -26 -59 11 -55 29 6 23 35 -4 66 -2 89
7 50 19 58 18 32 -4z"/>
<path d="M3250 4371 c0 -16 77 -150 147 -258 115 -176 376 -478 563 -651 334
-308 606 -497 1074 -747 l90 -47 45 22 c296 141 672 384 935 605 340 283 661
659 853 998 51 90 51 91 -69 84 -57 -3 -110 -8 -118 -11 -8 -4 -37 -38 -64
-76 -71 -102 -263 -330 -369 -439 -331 -343 -652 -578 -1109 -814 l-108 -55
-127 67 c-318 167 -530 308 -793 529 -143 120 -432 419 -555 576 -61 77 -127
158 -147 180 l-37 41 -105 3 c-74 3 -106 0 -106 -7z m125 -11 l83 0 150 -187
c318 -399 669 -716 1069 -966 108 -68 422 -237 441 -237 34 0 420 211 571 312
228 153 498 380 675 569 98 104 260 297 339 404 32 44 66 86 75 93 10 7 50 12
109 12 l93 0 -32 -52 c-177 -295 -375 -544 -624 -790 -199 -196 -357 -323
-644 -515 -168 -112 -525 -313 -556 -313 -14 0 -264 137 -424 233 -437 261
-853 630 -1174 1041 -84 108 -119 160 -208 310 -35 58 -52 96 -42 92 8 -3 53
-6 99 -6z"/>
<path d="M4675 4145 c4 -11 28 -86 55 -167 53 -162 75 -209 64 -143 -10 67
-83 278 -105 305 -17 20 -20 21 -14 5z"/>
<path d="M5558 4107 c-31 -60 -49 -104 -53 -132 -1 -11 -10 -51 -19 -88 -34
-145 -10 -108 45 68 22 72 47 147 55 168 20 54 3 45 -28 -16z"/>
</g>
</svg>
